<svg xmlns="http://www.w3.org/2000/svg" viewBox="0 0 900 700" role="img" aria-label="Учимся вместе — иллюстрация">
  <rect width="900" height="700" rx="40" fill="#f8fafc"/>
  <circle cx="220" cy="160" r="70" fill="#e8f4fd"/>
  <circle cx="690" cy="130" r="52" fill="#d4edda"/>
  <rect x="150" y="210" width="600" height="340" rx="32" fill="#ffffff" stroke="#dee2e6" stroke-width="8"/>
  <rect x="210" y="270" width="180" height="120" rx="18" fill="#2c5f8a"/>
  <rect x="430" y="270" width="260" height="26" rx="13" fill="#e8f4fd"/>
  <rect x="430" y="320" width="220" height="26" rx="13" fill="#e8f4fd"/>
  <rect x="430" y="370" width="160" height="26" rx="13" fill="#e8f4fd"/>
  <circle cx="300" cy="330" r="26" fill="#ffffff"/>
  <path d="M270 354c20-20 40-20 60 0" fill="none" stroke="#ffffff" stroke-width="10" stroke-linecap="round"/>
  <rect x="250" y="430" width="400" height="36" rx="18" fill="#f39c12" opacity="0.9"/>
  <rect x="180" y="500" width="540" height="22" rx="11" fill="#e3f0fb"/>
  <circle cx="720" cy="450" r="52" fill="#e3f0fb"/>
  <text x="450" y="610" text-anchor="middle" font-family="Roboto, Arial, sans-serif" font-size="34" font-weight="700" fill="#2d3436">УчимсяВместе</text>
  <text x="450" y="650" text-anchor="middle" font-family="Roboto, Arial, sans-serif" font-size="20" fill="#6c757d">Понятные уроки для каждого</text>
</svg>